<svg xmlns="http://www.w3.org/2000/svg" version="1.1" xmlns:xlink="http://www.w3.org/1999/xlink" width="1000" height="1000"><style>
    #light-icon {
      display: inline;
    }
    #dark-icon {
      display: none;
    }

    @media (prefers-color-scheme: dark) {
      #light-icon {
        display: none;
      }
      #dark-icon {
        display: inline;
      }
    }
  </style><g id="light-icon"><svg xmlns="http://www.w3.org/2000/svg" version="1.1" xmlns:xlink="http://www.w3.org/1999/xlink" width="1000" height="1000"><g clip-path="url(#SvgjsClipPath1335)"><rect width="1000" height="1000" fill="#ffffff"></rect><g transform="matrix(1.3513513513513513,0,0,1.3513513513513513,50,50)"><svg xmlns="http://www.w3.org/2000/svg" version="1.1" xmlns:xlink="http://www.w3.org/1999/xlink" width="666" height="666"><svg width="666" height="666" viewBox="0 0 666 666" fill="none" xmlns="http://www.w3.org/2000/svg">
<g clip-path="url(#clip0_847_17)">
<path d="M330.992 331.565V335.007H112.434V331.565H330.992Z" fill="#EEEEEE"></path>
<path d="M551.847 331.565V335.007H332.715V331.565H551.847Z" fill="#EEEEEE"></path>
<path d="M334.434 342.465V554.139H330.992V342.465H334.434Z" fill="#EEEEEE"></path>
<path d="M551.27 333C551.27 212.452 453.546 114.729 332.998 114.729C212.45 114.729 114.727 212.452 114.727 333C114.727 453.548 212.45 551.272 332.998 551.272C453.546 551.272 551.27 453.548 551.27 333ZM554.712 333C554.712 455.449 455.447 554.713 332.998 554.713C210.55 554.713 111.285 455.449 111.285 333C111.285 210.551 210.55 111.287 332.998 111.287C455.447 111.287 554.712 210.551 554.712 333Z" fill="#EEEEEE"></path>
<path d="M666 0V666H0V0H666ZM3.44186 662.558H662.558V3.44186H3.44186V662.558Z" fill="#EEEEEE"></path>
<path d="M647.07 333C647.07 159.544 506.456 18.9302 333 18.9302C159.544 18.9302 18.9302 159.544 18.9302 333C18.9302 506.456 159.544 647.07 333 647.07C506.456 647.07 647.07 506.456 647.07 333ZM666 333C666 516.911 516.911 666 333 666C149.089 666 0 516.911 0 333C0 149.089 149.089 0 333 0C516.911 0 666 149.089 666 333Z" fill="#0051FF"></path>
<path d="M599.403 461.49L599.403 461.49L616.234 490.035H49.1953L332.715 9.19531L599.403 461.49ZM332.714 46.4653L82.3327 471.104L82.3322 471.105H583.097L332.714 46.4653Z" fill="black"></path>
<path d="M449.449 323.821V342.752H449.107C444.433 405.32 392.358 454.612 328.524 454.612C261.599 454.612 207.371 400.279 207.371 333.287C207.371 266.027 264.337 211.961 330.991 211.961V230.891C274.279 230.891 226.301 276.988 226.301 333.287C226.301 389.852 272.082 435.682 328.524 435.682C381.87 435.682 425.491 394.876 430.113 342.752H330.991V323.821H449.449Z" fill="#0051FF"></path>
<path d="M334.434 115.301V323.822H330.992V115.301H334.434Z" fill="#EEEEEE"></path>
</g>
<defs>
<clipPath id="clip0_847_17">
<rect width="666" height="666" fill="white"></rect>
</clipPath>
<clipPath id="SvgjsClipPath1335"><rect width="1000" height="1000" x="0" y="0" rx="500" ry="500"></rect></clipPath></defs>
</svg></svg></g></g></svg></g><g id="dark-icon"><svg xmlns="http://www.w3.org/2000/svg" version="1.1" xmlns:xlink="http://www.w3.org/1999/xlink" width="1000" height="1000"><g clip-path="url(#SvgjsClipPath1336)"><rect width="1000" height="1000" fill="#ffffff"></rect><g transform="matrix(1.2012012012012012,0,0,1.2012012012012012,100,100)"><svg xmlns="http://www.w3.org/2000/svg" version="1.1" xmlns:xlink="http://www.w3.org/1999/xlink" width="666" height="666"><svg width="666" height="666" viewBox="0 0 666 666" fill="none" xmlns="http://www.w3.org/2000/svg">
<g clip-path="url(#clip0_847_17)">
<path d="M330.992 331.565V335.007H112.434V331.565H330.992Z" fill="#EEEEEE"></path>
<path d="M551.847 331.565V335.007H332.715V331.565H551.847Z" fill="#EEEEEE"></path>
<path d="M334.434 342.465V554.139H330.992V342.465H334.434Z" fill="#EEEEEE"></path>
<path d="M551.27 333C551.27 212.452 453.546 114.729 332.998 114.729C212.45 114.729 114.727 212.452 114.727 333C114.727 453.548 212.45 551.272 332.998 551.272C453.546 551.272 551.27 453.548 551.27 333ZM554.712 333C554.712 455.449 455.447 554.713 332.998 554.713C210.55 554.713 111.285 455.449 111.285 333C111.285 210.551 210.55 111.287 332.998 111.287C455.447 111.287 554.712 210.551 554.712 333Z" fill="#EEEEEE"></path>
<path d="M666 0V666H0V0H666ZM3.44186 662.558H662.558V3.44186H3.44186V662.558Z" fill="#EEEEEE"></path>
<path d="M647.07 333C647.07 159.544 506.456 18.9302 333 18.9302C159.544 18.9302 18.9302 159.544 18.9302 333C18.9302 506.456 159.544 647.07 333 647.07C506.456 647.07 647.07 506.456 647.07 333ZM666 333C666 516.911 516.911 666 333 666C149.089 666 0 516.911 0 333C0 149.089 149.089 0 333 0C516.911 0 666 149.089 666 333Z" fill="#0051FF"></path>
<path d="M599.403 461.49L599.403 461.49L616.234 490.035H49.1953L332.715 9.19531L599.403 461.49ZM332.714 46.4653L82.3327 471.104L82.3322 471.105H583.097L332.714 46.4653Z" fill="black"></path>
<path d="M449.449 323.821V342.752H449.107C444.433 405.32 392.358 454.612 328.524 454.612C261.599 454.612 207.371 400.279 207.371 333.287C207.371 266.027 264.337 211.961 330.991 211.961V230.891C274.279 230.891 226.301 276.988 226.301 333.287C226.301 389.852 272.082 435.682 328.524 435.682C381.87 435.682 425.491 394.876 430.113 342.752H330.991V323.821H449.449Z" fill="#0051FF"></path>
<path d="M334.434 115.301V323.822H330.992V115.301H334.434Z" fill="#EEEEEE"></path>
</g>
<defs>
<clipPath id="clip0_847_17">
<rect width="666" height="666" fill="white"></rect>
</clipPath>
<clipPath id="SvgjsClipPath1336"><rect width="1000" height="1000" x="0" y="0" rx="500" ry="500"></rect></clipPath></defs>
</svg></svg></g></g></svg></g></svg>