<svg xmlns="http://www.w3.org/2000/svg" version="1.1" xmlns:xlink="http://www.w3.org/1999/xlink" width="153" height="199"><svg width="153" height="199" viewBox="0 0 153 199" fill="none" xmlns="http://www.w3.org/2000/svg">
<path d="M55.125 75.2832L13.875 51.4678L13.5 51.251V99.749L13.875 99.5322L55.125 75.7168L55.5 75.5L55.125 75.2832Z" fill="#0051FF" stroke="#0051FF" stroke-width="0.5"></path>
<path d="M55.125 123.283L13.875 99.4678L13.5 99.251V147.749L13.875 147.532L55.125 123.717L55.5 123.5L55.125 123.283Z" fill="#0051FF" stroke="#0051FF" stroke-width="0.5"></path>
<path d="M13.875 51.2832L55.125 27.4678L55.5 27.251V75.749L55.125 75.5322L13.875 51.7168L13.5 51.5L13.875 51.2832Z" fill="#0051FF" stroke="#0051FF" stroke-width="0.5"></path>
<path d="M13.875 99.2832L55.125 75.4678L55.5 75.251V123.749L55.125 123.532L13.875 99.7168L13.5 99.5L13.875 99.2832Z" fill="#0051FF" stroke="#0051FF" stroke-width="0.5"></path>
<path d="M13.875 147.283L55.125 123.468L55.5 123.251V171.749L55.125 171.532L13.875 147.717L13.5 147.5L13.875 147.283Z" fill="#0051FF" stroke="#0051FF" stroke-width="0.5"></path>
<path d="M55.875 171.283L97.125 147.468L97.5 147.251V195.749L97.125 195.532L55.875 171.717L55.5 171.5L55.875 171.283Z" fill="#0051FF" stroke="#0051FF" stroke-width="0.5"></path>
<path d="M97.875 147.283L139.125 123.468L139.5 123.251V171.749L139.125 171.532L97.875 147.717L97.5 147.5L97.875 147.283Z" fill="#0051FF" stroke="#0051FF" stroke-width="0.5"></path>
<path d="M55.875 27.2832L97.125 3.46778L97.5 3.25098V51.749L97.125 51.5322L55.875 27.7168L55.5 27.5L55.875 27.2832Z" fill="#0051FF" stroke="#0051FF" stroke-width="0.5"></path>
<path d="M97.125 147.717L55.875 171.532L55.5 171.749V123.251L55.875 123.468L97.125 147.283L97.5 147.5L97.125 147.717Z" fill="#0051FF" stroke="#0051FF" stroke-width="0.5"></path>
<path d="M97.875 51.2832L139.125 27.4678L139.5 27.251V75.749L139.125 75.5322L97.875 51.7168L97.5 51.5L97.875 51.2832Z" fill="#0051FF" stroke="#0051FF" stroke-width="0.5"></path>
<path d="M139.125 171.717L97.875 195.532L97.5 195.749V147.251L97.875 147.468L139.125 171.283L139.5 171.5L139.125 171.717Z" fill="#0051FF" stroke="#0051FF" stroke-width="0.5"></path>
<path d="M139.125 27.2832L97.875 3.46778L97.5 3.25098V51.749L97.875 51.5322L139.125 27.7168L139.5 27.5L139.125 27.2832Z" fill="#0051FF" stroke="#0051FF" stroke-width="0.5"></path>
<path d="M97.125 51.2832L55.875 27.4678L55.5 27.251V75.749L55.875 75.5322L97.125 51.7168L97.5 51.5L97.125 51.2832Z" fill="#0051FF" stroke="#0051FF" stroke-width="0.5"></path>
<path d="M139.125 123.283L97.875 99.4678L97.5 99.251V147.749L97.875 147.532L139.125 123.717L139.5 123.5L139.125 123.283Z" fill="#0046DE" stroke="#0046DE" stroke-width="0.5"></path>
<path d="M97.875 99.2832L139.125 75.4678L139.5 75.251V123.749L139.125 123.532L97.875 99.7168L97.5 99.5L97.875 99.2832Z" fill="#0046DE" stroke="#0046DE" stroke-width="0.5"></path>
</svg><style>@media (prefers-color-scheme: light) { :root { filter: none; } }
@media (prefers-color-scheme: dark) { :root { filter: none; } }
</style></svg>