<svg xmlns="http://www.w3.org/2000/svg" version="1.1" xmlns:xlink="http://www.w3.org/1999/xlink" width="680" height="600"><svg width="680" height="600" viewBox="0 0 680 600" fill="none" xmlns="http://www.w3.org/2000/svg">
<path fill-rule="evenodd" clip-rule="evenodd" d="M298.774 23.741C317.097 -7.91368 362.903 -7.91366 381.226 23.741L439.51 125.235L447 140C454.369 158.394 449.375 180.812 431.673 191.007C419.161 197.603 390.874 201.864 379.659 182.488L379.448 182.127C361 150.858 317.027 154.078 298.775 185.611L146.99 447.842C128.668 479.496 151.571 519.064 188.216 519.064H491.785C497.12 519.064 501.712 518.226 505.607 516.695C529.029 509.705 546.1 488.046 546.1 462.41C546.1 433.086 524.068 409.914 495.5 407C495.5 407 473.995 406.053 496.4 406.053C518.806 406.053 571 412 572.607 365.288C572.607 359.971 570.869 354.151 569 349.5L673.552 528.777C691.873 560.431 668.971 600 632.326 600H47.6739C11.0294 600 -11.8735 560.431 6.44831 528.777L298.774 23.741Z" fill="#0057FF"></path>
<path d="M342 367C342 344.908 359.909 327 382 327H533C555.091 327 573 344.908 573 367C573 389.091 555.091 407 533 407H382C359.909 407 342 389.091 342 367Z" fill="#0057FF"></path>
</svg><style>@media (prefers-color-scheme: light) { :root { filter: none; } }
@media (prefers-color-scheme: dark) { :root { filter: none; } }
</style></svg>